<?xml version="1.0" encoding="UTF-8"?>
<!-- My Brand New Logo (1.0.87), id: 3gg33JO1NGi3zQoXPgrO (1.0.7), date: 2021-07-13 14:35 -->
<svg version="1.1" preserveAspectRatio="xMidYMid meet" xmlns="http://www.w3.org/2000/svg" xmlns:xlink="http://www.w3.org/1999/xlink" viewBox="124.035 200.126 751.93 599.749" width="1000" height="798">
	<defs>
		<g id="def-1" transform="matrix(11.246, 0, 0, 11.246, 129.915, 206.006)" fill="#fff" stroke="none" stroke-width="1">
			<g transform="translate(-12.092, -18.858)">
				<g></g>
				<g>
					<g>
						<path d=" M18.555,34.97 c0.26,0.005,0.646 -0.008,1.181 -0.017 c1.05 -0.019,2.635 -0.046,4.55 -0.053 c0.065,0.003,0.127,0.013,0.193,0.013 c0.009,0,0.02,0,0.029,0 c4.436 -0.021,51.667 -0.076,52.143 -0.076 c0.365 -0.001,0.66 -0.297,0.66 -0.661 s-0.296 -0.659 -0.66 -0.659 h0 c-0.471,0 -46.573,0.053 -51.965,0.076 c-0.022 -0.002 -0.042 -0.013 -0.065 -0.013 c0,0 -0.001,0 -0.001,0 c-0.093,0 -0.175,0.001 -0.266,0.001 c-1.91 -0.081 -3 -1.224 -3.58 -2.221 c-1.348 -2.317 -1.331 -5.861,0.039 -8.242 c0.464 -0.806,1.236 -1.72,2.444 -2.161 l0.769 -0.206 c0.243 -0.04,0.501 -0.062,0.773 -0.062 l51.948 -0.011 c0.365,0,0.66 -0.295,0.66 -0.66 c0 -0.364 -0.296 -0.66 -0.66 -0.66 l-51.948,0.01 c-0.333,0 -0.653,0.035 -0.968,0.086 c-0.029,0.004 -0.057 -0.002 -0.086,0.005 l-0.174,0.047 c-0.207,0.043 -0.408,0.097 -0.604,0.163 l-5.593,1.5 c-0.025,0.005 -0.05,0 -0.076,0.008 c-3.381,1.04 -4.671,5.105 -4.168,8.403 C13.637,32.907,15.716,34.97,18.555,34.97 z M17.566,22.484 l2.529 -0.679 c-0.15,0.206 -0.294,0.422 -0.427,0.653 c-1.587,2.759 -1.602,6.871 -0.036,9.564 c0.367,0.631,0.812,1.157,1.313,1.589 c-0.458,0.007 -0.883,0.015 -1.233,0.021 c-0.508,0.009 -0.894,0.016 -1.136,0.018 c-2.533,0.043 -3.825 -2.197 -4.142 -4.27 C14.016,26.635,15.077,23.344,17.566,22.484 z"></path>
						<path d=" M75.758,24.308 c0.292,0,0.528 -0.236,0.528 -0.528 s-0.237 -0.528 -0.528 -0.528 l-50.562,0.009 c-0.292,0 -0.528,0.237 -0.528,0.528 c0,0.292,0.237,0.528,0.528,0.528 L75.758,24.308 z"></path>
						<path d=" M25.197,31.183 l50.562 -0.009 c0.292,0,0.528 -0.237,0.528 -0.528 c0 -0.292 -0.237 -0.528 -0.528 -0.528 l-50.562,0.009 c-0.292,0 -0.528,0.236 -0.528,0.528 C24.669,30.946,24.906,31.183,25.197,31.183 z"></path>
						<path d=" M22.424,27.223 c0,0.292,0.236,0.528,0.528,0.528 l52.806 -0.01 c0.292,0,0.528 -0.236,0.528 -0.528 c0 -0.292 -0.237 -0.528 -0.528 -0.528 l-52.806,0.01 C22.66,26.695,22.424,26.931,22.424,27.223 z"></path>
						<path d=" M76.747,68.223 l-51.948 -0.01 c-0.278,0 -0.539 -0.024 -0.786 -0.065 l-0.754 -0.202 c-1.209 -0.44 -1.982 -1.354 -2.446 -2.161 c-1.37 -2.381 -1.386 -5.924 -0.039 -8.242 c0.577 -0.991,1.66 -2.155,3.543 -2.222 c0.104,0,0.197,0.001,0.303,0.001 c0,0,0,0,0.001,0 c0.023,0,0.042 -0.011,0.065 -0.014 c5.391,0.023,51.493,0.076,51.965,0.076 h0 c0.364,0,0.66 -0.295,0.66 -0.66 c0 -0.364 -0.295 -0.66 -0.66 -0.661 c-0.477,0 -47.708 -0.055 -52.143 -0.076 c-0.01,0 -0.02,0 -0.029,0 c-0.065,0 -0.127,0.01 -0.193,0.013 c-1.916 -0.007 -3.5 -0.034 -4.55 -0.053 c-0.516 -0.009 -0.907 -0.016 -1.153 -0.018 c-2.842 -0.038 -4.943,2.053 -5.454,5.392 c-0.498,3.26,0.761,7.265,4.058,8.36 c0,0,0,0,0,0 h0 c0.038,0.012,0.072,0.029,0.109,0.041 c0.033,0.01,0.065,0.01,0.099,0.015 l5.573,1.496 c0.194,0.064,0.393,0.117,0.596,0.16 l0.179,0.048 c0.058,0.015,0.115,0.023,0.172,0.023 c0,0,0.001,0,0.001,0 c0.288,0.042,0.58,0.067,0.881,0.067 l51.948,0.011 c0.365,0,0.66 -0.296,0.66 -0.66 S77.111,68.223,76.747,68.223 z M14.435,59.521 c0.315 -2.066,1.563 -4.27,4.121 -4.27 c0.242,0.009,0.634,0.009,1.157,0.018 c0.35,0.006,0.775,0.013,1.233,0.021 c-0.501,0.432 -0.946,0.958 -1.313,1.59 c-1.567,2.693 -1.551,6.805,0.036,9.563 c0.132,0.231,0.277,0.447,0.427,0.653 l-2.515 -0.675 C15.081,65.57,14.015,62.272,14.435,59.521 z"></path>
						<path d=" M75.758,64.593 l-50.562 -0.009 c-0.291,0 -0.528,0.236 -0.528,0.528 c0,0.291,0.236,0.528,0.528,0.528 l50.562,0.009 c0.291,0,0.528 -0.236,0.528 -0.528 C76.286,64.83,76.05,64.593,75.758,64.593 z"></path>
						<path d=" M75.759,57.728 l-50.562 -0.009 c-0.292,0 -0.528,0.236 -0.528,0.528 c0,0.292,0.236,0.528,0.528,0.528 l50.562,0.009 c0.291,0,0.528 -0.236,0.528 -0.528 C76.287,57.964,76.051,57.728,75.759,57.728 z"></path>
						<path d=" M75.758,61.161 L22.952,61.15 c-0.292,0 -0.528,0.236 -0.528,0.528 c0,0.291,0.236,0.528,0.528,0.528 l52.806,0.01 c0.291,0,0.528 -0.236,0.528 -0.528 S76.05,61.161,75.758,61.161 z"></path>
						<path d=" M76.747,36.651 l-51.948,0.01 c-0.138,0 -0.271,0.017 -0.406,0.026 c-0.003,0 -0.007 -0.002 -0.01 -0.002 l-5.904,0.154 c-3.792,0.367 -5.543,4.195 -5.566,7.595 c-0.022,3.29,1.598,7.011,5.243,7.412 l5.529,0.302 c0.259,0.035,0.523,0.057,0.794,0.057 c0.009,0,0.02,0,0.029,0 c4.436 -0.021,51.667 -0.076,52.143 -0.076 c0.365 -0.001,0.66 -0.297,0.66 -0.661 c0 -0.365 -0.296 -0.66 -0.66 -0.66 h0 c-0.477,0 -47.71,0.055 -52.149,0.076 c-0.09 -0.001 -0.169 -0.016 -0.255 -0.021 c-0.011 -0.001 -0.02 -0.007 -0.03 -0.008 l-0.178 -0.01 c-1.713 -0.186 -2.716 -1.254 -3.264 -2.194 c-1.348 -2.317 -1.331 -5.86,0.039 -8.242 c0.638 -1.108,1.846 -2.429,3.986 -2.429 l51.948 -0.011 c0.365,0,0.66 -0.295,0.66 -0.66 S77.111,36.651,76.747,36.651 z M19.668,39.752 c-1.587,2.759 -1.602,6.871 -0.036,9.564 c0.301,0.518,0.655,0.963,1.048,1.347 l-2.416 -0.131 c-2.811 -0.311 -4.05 -3.281 -4.032 -6.088 c0.019 -2.827,1.396 -6.002,4.327 -6.287 l2.454 -0.063 C20.502,38.548,20.045,39.097,19.668,39.752 z"></path>
						<path d=" M75.758,41.603 c0.292,0,0.528 -0.237,0.528 -0.528 c0 -0.292 -0.237 -0.528 -0.528 -0.528 l-50.562,0.009 c-0.292,0 -0.528,0.237 -0.528,0.528 c0,0.292,0.237,0.528,0.528,0.528 L75.758,41.603 z"></path>
						<path d=" M25.197,48.477 l50.562 -0.009 c0.292,0,0.528 -0.236,0.528 -0.528 c0 -0.292 -0.237 -0.528 -0.528 -0.528 L25.197,47.42 c-0.292,0 -0.528,0.237 -0.528,0.528 C24.669,48.241,24.906,48.477,25.197,48.477 z"></path>
						<path d=" M22.424,44.517 c0,0.292,0.236,0.528,0.528,0.528 l52.806 -0.01 c0.292,0,0.528 -0.236,0.528 -0.528 c0 -0.292 -0.237 -0.528 -0.528 -0.528 l-52.806,0.01 C22.66,43.989,22.424,44.225,22.424,44.517 z"></path>
					</g>
				</g>
			</g>
		</g>
		<mask id="mask-1" x="100.515" y="176.606" width="798.97" height="646.788" maskUnits="userSpaceOnUse" stroke-width="0">
			<rect x="129.915" y="206.006" width="740.171" height="587.989" fill="#000"></rect>
			<use xlink:href="#def-1" fill="#fff" stroke="#fff"></use>
		</mask>
	</defs>
	<g mask="url(#mask-1)">
		<rect x="129.915" y="206.006" width="740.171" height="587.989" fill="#000"></rect>
	</g>
</svg>
